<mxfile host="app.diagrams.net" modified="2024-02-19T14:46:51.008Z" agent="Mozilla/5.0 (X11; Linux x86_64) AppleWebKit/537.36 (KHTML, like Gecko) Chrome/121.0.0.0 Safari/537.36" version="23.1.5" etag="1mxFwzDdWcbuKpXdcLqE" type="github">
  <diagram name="Page-1" id="212QlPqHBuIsNBlb2Me0">
    <mxGraphModel>
      <root>
        <mxCell id="0" />
        <mxCell id="1" parent="0" />
      </root>
    </mxGraphModel>
  </diagram>
</mxfile>
